<svg id="play-button" xmlns="http://www.w3.org/2000/svg" width="67.641" height="67.641" viewBox="0 0 67.641 67.641">
  <g id="Сгруппировать_2" data-name="Сгруппировать 2">
    <g id="Сгруппировать_1" data-name="Сгруппировать 1">
      <path id="Контур_1" data-name="Контур 1" d="M33.82,0a33.82,33.82,0,1,0,33.82,33.82A33.858,33.858,0,0,0,33.82,0Zm0,64.822a31,31,0,1,1,31-31A31.037,31.037,0,0,1,33.82,64.822Z" fill="#f7f7f7"/>
      <path id="Контур_2" data-name="Контур 2" d="M213.9,162.238l-19.728-12.683A1.409,1.409,0,0,0,192,150.74v25.365a1.409,1.409,0,0,0,2.172,1.185L213.9,164.608a1.409,1.409,0,0,0,0-2.37Zm-19.082,11.286v-20.2l15.713,10.1Z" transform="translate(-166.635 -129.603)" fill="#f7f7f7"/>
    </g>
  </g>
</svg>
